# xmcd
#
# Track frame offsets:
#	150
#	19358
#	36841
#	47468
#	67532
#	81928
#	104129
#	129165
#	149088
#	167595
#	186710
#	206212
#	221927
#	234304
#
# Disc length: 3281 seconds
#
# Revision: 0
# Processed by: cddbd v1.5.1PL2 Copyright (c) Steve Scherf et al.
# Submitted via: audiograbber 1.83.01
#
DISCID=d30ccf0e
DTITLE=Varios - Grandes Festivais
DYEAR=2005
DGENRE=MPB
TTITLE0=Oswaldo Montenegro - Bandolins
TTITLE1=Luiz Ramalho - Foi Deus Quem Fez Voc 
TTITLE2=Chico Buarque - A Banda
TTITLE3=Geraldo Vandre - Disparada
TTITLE4=Edmundo Souto - Cantiga Por Luciana
TTITLE5=Dominguinhos - Quem Me Levar¡ Sou Eu
TTITLE6=Guilherme Arantes - Planeta ¡gua
TTITLE7=Guarabyra - Dona
TTITLE8=Zeca Bahia - Porto Solid√o
TTITLE9=Taiguara - Universo No Teu Corpo
TTITLE10=Paulinho Da Viola - Sinal Fechado
TTITLE11=Antonio Carlos - Desacato
TTITLE12=Vinicius De Moraes - Arrast√o
TTITLE13=Eduardo Dusek - Nostradamus
EXTD=
EXTT0=
EXTT1=
EXTT2=
EXTT3=
EXTT4=
EXTT5=
EXTT6=
EXTT7=
EXTT8=
EXTT9=
EXTT10=
EXTT11=
EXTT12=
EXTT13=
PLAYORDER=
